<mxfile host="Electron" modified="2024-06-03T12:54:21.817Z" agent="Mozilla/5.0 (Macintosh; Intel Mac OS X 10_15_7) AppleWebKit/537.36 (KHTML, like Gecko) draw.io/24.4.13 Chrome/124.0.6367.207 Electron/30.0.6 Safari/537.36" etag="FrsrnH3xjH6C-Cbc1QnX" version="24.4.13" type="device" pages="2">
  <diagram name="System Design" id="KUGNpkM9NF4pwxxR2nBd">
    <mxGraphModel dx="1368" dy="927" grid="1" gridSize="10" guides="1" tooltips="1" connect="1" arrows="1" fold="1" page="1" pageScale="1" pageWidth="1100" pageHeight="850" math="0" shadow="0">
      <root>
        <mxCell id="P0SyI0v3QPLrSSrKDHl5-0" />
        <mxCell id="P0SyI0v3QPLrSSrKDHl5-1" parent="P0SyI0v3QPLrSSrKDHl5-0" />
        <mxCell id="P0SyI0v3QPLrSSrKDHl5-2" value="" style="rounded=0;whiteSpace=wrap;html=1;strokeWidth=2;" parent="P0SyI0v3QPLrSSrKDHl5-1" vertex="1">
          <mxGeometry x="259.25" y="70" width="830" height="575" as="geometry" />
        </mxCell>
        <mxCell id="0wrOK7oNjDltKw8NBow_-15" style="edgeStyle=orthogonalEdgeStyle;rounded=0;orthogonalLoop=1;jettySize=auto;html=1;" parent="P0SyI0v3QPLrSSrKDHl5-1" source="P0SyI0v3QPLrSSrKDHl5-8" target="0wrOK7oNjDltKw8NBow_-14" edge="1">
          <mxGeometry relative="1" as="geometry" />
        </mxCell>
        <mxCell id="P0SyI0v3QPLrSSrKDHl5-8" value="Postgres Master&lt;br&gt;Database" style="fontColor=#0066CC;verticalAlign=top;verticalLabelPosition=bottom;labelPosition=center;align=center;html=1;outlineConnect=0;fillColor=#CCCCCC;strokeColor=#6881B3;gradientColor=none;gradientDirection=north;strokeWidth=2;shape=mxgraph.networks.storage;" parent="P0SyI0v3QPLrSSrKDHl5-1" vertex="1">
          <mxGeometry x="750" y="118.07999999999998" width="50" height="65" as="geometry" />
        </mxCell>
        <mxCell id="P0SyI0v3QPLrSSrKDHl5-23" style="rounded=0;orthogonalLoop=1;jettySize=auto;html=1;endArrow=none;endFill=0;startArrow=none;entryX=0;entryY=0.5;entryDx=0;entryDy=0;entryPerimeter=0;" parent="P0SyI0v3QPLrSSrKDHl5-1" source="P0SyI0v3QPLrSSrKDHl5-31" target="P0SyI0v3QPLrSSrKDHl5-8" edge="1">
          <mxGeometry relative="1" as="geometry">
            <mxPoint x="800" y="470.4000000000001" as="sourcePoint" />
            <mxPoint x="920" y="470" as="targetPoint" />
          </mxGeometry>
        </mxCell>
        <mxCell id="P0SyI0v3QPLrSSrKDHl5-31" value="Firewall" style="aspect=fixed;perimeter=ellipsePerimeter;html=1;align=center;shadow=0;dashed=0;spacingTop=3;image;image=img/lib/active_directory/firewall.svg;" parent="P0SyI0v3QPLrSSrKDHl5-1" vertex="1">
          <mxGeometry x="654.25" y="117.5" width="40" height="65.57" as="geometry" />
        </mxCell>
        <mxCell id="P0SyI0v3QPLrSSrKDHl5-32" value="" style="rounded=0;orthogonalLoop=1;jettySize=auto;html=1;endArrow=none;endFill=0;exitX=0.844;exitY=-0.014;exitDx=0;exitDy=0;exitPerimeter=0;" parent="P0SyI0v3QPLrSSrKDHl5-1" source="P0SyI0v3QPLrSSrKDHl5-10" target="P0SyI0v3QPLrSSrKDHl5-31" edge="1">
          <mxGeometry relative="1" as="geometry">
            <mxPoint x="867" y="345" as="sourcePoint" />
            <mxPoint x="920" y="470" as="targetPoint" />
          </mxGeometry>
        </mxCell>
        <mxCell id="BqZbq1a60cqY82nW67I--4" style="edgeStyle=orthogonalEdgeStyle;rounded=0;orthogonalLoop=1;jettySize=auto;html=1;entryX=0;entryY=0.5;entryDx=0;entryDy=0;entryPerimeter=0;endArrow=none;endFill=0;exitX=0.875;exitY=0.5;exitDx=0;exitDy=0;exitPerimeter=0;" parent="P0SyI0v3QPLrSSrKDHl5-1" source="P0SyI0v3QPLrSSrKDHl5-34" target="P0SyI0v3QPLrSSrKDHl5-5" edge="1">
          <mxGeometry relative="1" as="geometry" />
        </mxCell>
        <mxCell id="P0SyI0v3QPLrSSrKDHl5-34" value="Cloudflare Proxy" style="ellipse;shape=cloud;whiteSpace=wrap;html=1;fontSize=14;" parent="P0SyI0v3QPLrSSrKDHl5-1" vertex="1">
          <mxGeometry x="10" y="400" width="200" height="125" as="geometry" />
        </mxCell>
        <mxCell id="P0SyI0v3QPLrSSrKDHl5-35" style="rounded=0;orthogonalLoop=1;jettySize=auto;html=1;entryX=0.49;entryY=0.109;entryDx=0;entryDy=0;entryPerimeter=0;endArrow=none;endFill=0;" parent="P0SyI0v3QPLrSSrKDHl5-1" source="P0SyI0v3QPLrSSrKDHl5-36" target="P0SyI0v3QPLrSSrKDHl5-34" edge="1">
          <mxGeometry relative="1" as="geometry" />
        </mxCell>
        <mxCell id="P0SyI0v3QPLrSSrKDHl5-36" value="Client 1" style="fontColor=#0066CC;verticalAlign=top;verticalLabelPosition=bottom;labelPosition=center;align=center;html=1;outlineConnect=0;fillColor=#CCCCCC;strokeColor=#6881B3;gradientColor=none;gradientDirection=north;strokeWidth=2;shape=mxgraph.networks.pc;" parent="P0SyI0v3QPLrSSrKDHl5-1" vertex="1">
          <mxGeometry x="60" y="285" width="100" height="70" as="geometry" />
        </mxCell>
        <mxCell id="P0SyI0v3QPLrSSrKDHl5-37" style="rounded=0;orthogonalLoop=1;jettySize=auto;html=1;entryX=0.473;entryY=0.947;entryDx=0;entryDy=0;entryPerimeter=0;endArrow=none;endFill=0;" parent="P0SyI0v3QPLrSSrKDHl5-1" source="P0SyI0v3QPLrSSrKDHl5-38" target="P0SyI0v3QPLrSSrKDHl5-34" edge="1">
          <mxGeometry relative="1" as="geometry" />
        </mxCell>
        <mxCell id="P0SyI0v3QPLrSSrKDHl5-38" value="Client 2" style="fontColor=#0066CC;verticalAlign=top;verticalLabelPosition=bottom;labelPosition=center;align=center;html=1;outlineConnect=0;fillColor=#CCCCCC;strokeColor=#6881B3;gradientColor=none;gradientDirection=north;strokeWidth=2;shape=mxgraph.networks.laptop;" parent="P0SyI0v3QPLrSSrKDHl5-1" vertex="1">
          <mxGeometry x="55" y="575" width="100" height="55" as="geometry" />
        </mxCell>
        <mxCell id="P0SyI0v3QPLrSSrKDHl5-28" value="Ingress &lt;br&gt;Load Balancer&lt;br&gt;&amp;nbsp;Firewall" style="aspect=fixed;perimeter=ellipsePerimeter;html=1;align=center;shadow=0;dashed=0;spacingTop=3;image;image=img/lib/active_directory/firewall.svg;" parent="P0SyI0v3QPLrSSrKDHl5-1" vertex="1">
          <mxGeometry x="450" y="417.5" width="54.9" height="90" as="geometry" />
        </mxCell>
        <mxCell id="P0SyI0v3QPLrSSrKDHl5-27" value="" style="edgeStyle=orthogonalEdgeStyle;rounded=0;orthogonalLoop=1;jettySize=auto;html=1;endArrow=none;endFill=0;" parent="P0SyI0v3QPLrSSrKDHl5-1" source="P0SyI0v3QPLrSSrKDHl5-5" target="P0SyI0v3QPLrSSrKDHl5-28" edge="1">
          <mxGeometry relative="1" as="geometry" />
        </mxCell>
        <mxCell id="P0SyI0v3QPLrSSrKDHl5-3" style="edgeStyle=orthogonalEdgeStyle;rounded=0;orthogonalLoop=1;jettySize=auto;html=1;entryX=0;entryY=0.5;entryDx=0;entryDy=0;endArrow=none;endFill=0;startArrow=none;" parent="P0SyI0v3QPLrSSrKDHl5-1" source="P0SyI0v3QPLrSSrKDHl5-28" target="P0SyI0v3QPLrSSrKDHl5-10" edge="1">
          <mxGeometry relative="1" as="geometry">
            <mxPoint x="560" y="480" as="targetPoint" />
          </mxGeometry>
        </mxCell>
        <mxCell id="P0SyI0v3QPLrSSrKDHl5-29" value="" style="edgeStyle=orthogonalEdgeStyle;rounded=0;orthogonalLoop=1;jettySize=auto;html=1;entryX=0;entryY=0.5;entryDx=0;entryDy=0;endArrow=none;endFill=0;" parent="P0SyI0v3QPLrSSrKDHl5-1" source="P0SyI0v3QPLrSSrKDHl5-5" target="P0SyI0v3QPLrSSrKDHl5-28" edge="1">
          <mxGeometry relative="1" as="geometry">
            <mxPoint x="435" y="470" as="sourcePoint" />
            <mxPoint x="545" y="470" as="targetPoint" />
          </mxGeometry>
        </mxCell>
        <mxCell id="P0SyI0v3QPLrSSrKDHl5-5" value="Wallaby API Service&lt;br&gt;Load Balancer" style="fontColor=#0066CC;verticalAlign=top;verticalLabelPosition=bottom;labelPosition=center;align=center;html=1;outlineConnect=0;fillColor=#CCCCCC;strokeColor=#6881B3;gradientColor=none;gradientDirection=north;strokeWidth=2;shape=mxgraph.networks.load_balancer;" parent="P0SyI0v3QPLrSSrKDHl5-1" vertex="1">
          <mxGeometry x="295" y="447.5" width="100" height="30" as="geometry" />
        </mxCell>
        <mxCell id="P0SyI0v3QPLrSSrKDHl5-24" style="edgeStyle=orthogonalEdgeStyle;rounded=0;orthogonalLoop=1;jettySize=auto;html=1;endArrow=none;endFill=0;entryX=0.5;entryY=1;entryDx=0;entryDy=0;" parent="P0SyI0v3QPLrSSrKDHl5-1" source="P0SyI0v3QPLrSSrKDHl5-25" target="0wrOK7oNjDltKw8NBow_-1" edge="1">
          <mxGeometry relative="1" as="geometry">
            <mxPoint x="880" y="455" as="targetPoint" />
            <Array as="points">
              <mxPoint x="1020" y="258" />
              <mxPoint x="970" y="258" />
            </Array>
          </mxGeometry>
        </mxCell>
        <mxCell id="P0SyI0v3QPLrSSrKDHl5-25" value="GCP Secure &lt;br&gt;Key Management" style="fontColor=#0066CC;verticalAlign=top;verticalLabelPosition=bottom;labelPosition=center;align=center;html=1;outlineConnect=0;fillColor=#CCCCCC;strokeColor=#6881B3;gradientColor=none;gradientDirection=north;strokeWidth=2;shape=mxgraph.networks.server;" parent="P0SyI0v3QPLrSSrKDHl5-1" vertex="1">
          <mxGeometry x="990" y="118.08000000000001" width="60" height="90" as="geometry" />
        </mxCell>
        <mxCell id="0wrOK7oNjDltKw8NBow_-5" value="Private Network Connection&lt;br&gt;with an API Key" style="text;html=1;strokeColor=none;fillColor=none;align=center;verticalAlign=middle;whiteSpace=wrap;rounded=0;" parent="P0SyI0v3QPLrSSrKDHl5-1" vertex="1">
          <mxGeometry x="720" y="410" width="120" height="30" as="geometry" />
        </mxCell>
        <mxCell id="0wrOK7oNjDltKw8NBow_-7" style="edgeStyle=orthogonalEdgeStyle;rounded=0;orthogonalLoop=1;jettySize=auto;html=1;entryX=0;entryY=0.5;entryDx=0;entryDy=0;endArrow=none;endFill=0;" parent="P0SyI0v3QPLrSSrKDHl5-1" source="MuD_cQ3klAhHsJhnSH7o-0" target="0wrOK7oNjDltKw8NBow_-0" edge="1">
          <mxGeometry relative="1" as="geometry" />
        </mxCell>
        <mxCell id="0wrOK7oNjDltKw8NBow_-11" style="edgeStyle=orthogonalEdgeStyle;rounded=0;orthogonalLoop=1;jettySize=auto;html=1;endArrow=none;endFill=0;" parent="P0SyI0v3QPLrSSrKDHl5-1" source="0wrOK7oNjDltKw8NBow_-9" target="0wrOK7oNjDltKw8NBow_-10" edge="1">
          <mxGeometry relative="1" as="geometry" />
        </mxCell>
        <mxCell id="0wrOK7oNjDltKw8NBow_-12" style="rounded=0;orthogonalLoop=1;jettySize=auto;html=1;entryX=0.142;entryY=0.003;entryDx=0;entryDy=0;entryPerimeter=0;endArrow=none;endFill=0;" parent="P0SyI0v3QPLrSSrKDHl5-1" source="0wrOK7oNjDltKw8NBow_-9" target="P0SyI0v3QPLrSSrKDHl5-10" edge="1">
          <mxGeometry relative="1" as="geometry" />
        </mxCell>
        <mxCell id="0wrOK7oNjDltKw8NBow_-9" value="Firewall" style="aspect=fixed;perimeter=ellipsePerimeter;html=1;align=center;shadow=0;dashed=0;spacingTop=3;image;image=img/lib/active_directory/firewall.svg;" parent="P0SyI0v3QPLrSSrKDHl5-1" vertex="1">
          <mxGeometry x="530.0000000000001" y="117.5" width="40" height="65.58" as="geometry" />
        </mxCell>
        <mxCell id="0wrOK7oNjDltKw8NBow_-17" style="edgeStyle=orthogonalEdgeStyle;rounded=0;orthogonalLoop=1;jettySize=auto;html=1;" parent="P0SyI0v3QPLrSSrKDHl5-1" source="0wrOK7oNjDltKw8NBow_-10" target="0wrOK7oNjDltKw8NBow_-16" edge="1">
          <mxGeometry relative="1" as="geometry" />
        </mxCell>
        <mxCell id="0wrOK7oNjDltKw8NBow_-10" value="Redis Master&lt;br&gt;Database" style="fontColor=#0066CC;verticalAlign=top;verticalLabelPosition=bottom;labelPosition=center;align=center;html=1;outlineConnect=0;fillColor=#CCCCCC;strokeColor=#6881B3;gradientColor=none;gradientDirection=north;strokeWidth=2;shape=mxgraph.networks.storage;" parent="P0SyI0v3QPLrSSrKDHl5-1" vertex="1">
          <mxGeometry x="440" y="120.28999999999999" width="50" height="60" as="geometry" />
        </mxCell>
        <mxCell id="0wrOK7oNjDltKw8NBow_-14" value="Postgres Replica&lt;br&gt;Database" style="fontColor=#0066CC;verticalAlign=top;verticalLabelPosition=bottom;labelPosition=center;align=center;html=1;outlineConnect=0;fillColor=#CCCCCC;strokeColor=#6881B3;gradientColor=none;gradientDirection=north;strokeWidth=2;shape=mxgraph.networks.storage;" parent="P0SyI0v3QPLrSSrKDHl5-1" vertex="1">
          <mxGeometry x="860" y="120.57999999999998" width="50" height="60" as="geometry" />
        </mxCell>
        <mxCell id="0wrOK7oNjDltKw8NBow_-16" value="Redis Replica&lt;br&gt;Database" style="fontColor=#0066CC;verticalAlign=top;verticalLabelPosition=bottom;labelPosition=center;align=center;html=1;outlineConnect=0;fillColor=#CCCCCC;strokeColor=#6881B3;gradientColor=none;gradientDirection=north;strokeWidth=2;shape=mxgraph.networks.storage;" parent="P0SyI0v3QPLrSSrKDHl5-1" vertex="1">
          <mxGeometry x="320" y="120.28999999999999" width="50" height="60" as="geometry" />
        </mxCell>
        <mxCell id="0wrOK7oNjDltKw8NBow_-19" value="" style="rounded=0;whiteSpace=wrap;html=1;dashed=1;dashPattern=8 8;" parent="P0SyI0v3QPLrSSrKDHl5-1" vertex="1">
          <mxGeometry x="260" y="665" width="830" height="125" as="geometry" />
        </mxCell>
        <mxCell id="P0SyI0v3QPLrSSrKDHl5-26" value="Google Cloud" style="text;html=1;strokeColor=none;fillColor=none;align=center;verticalAlign=middle;whiteSpace=wrap;rounded=0;fontStyle=1;fontSize=14;" parent="P0SyI0v3QPLrSSrKDHl5-1" vertex="1">
          <mxGeometry x="619.25" y="75" width="110" height="30" as="geometry" />
        </mxCell>
        <mxCell id="0wrOK7oNjDltKw8NBow_-21" value="External Services" style="text;html=1;strokeColor=none;fillColor=none;align=center;verticalAlign=middle;whiteSpace=wrap;rounded=0;fontStyle=1;fontSize=14;" parent="P0SyI0v3QPLrSSrKDHl5-1" vertex="1">
          <mxGeometry x="600" y="665" width="130" height="30" as="geometry" />
        </mxCell>
        <mxCell id="0wrOK7oNjDltKw8NBow_-22" value="Datadog&lt;br&gt;Application Monitoring" style="rounded=0;whiteSpace=wrap;html=1;" parent="P0SyI0v3QPLrSSrKDHl5-1" vertex="1">
          <mxGeometry x="290" y="710" width="130" height="60" as="geometry" />
        </mxCell>
        <mxCell id="0wrOK7oNjDltKw8NBow_-23" style="edgeStyle=orthogonalEdgeStyle;rounded=0;orthogonalLoop=1;jettySize=auto;html=1;" parent="P0SyI0v3QPLrSSrKDHl5-1" source="P0SyI0v3QPLrSSrKDHl5-10" edge="1">
          <mxGeometry relative="1" as="geometry">
            <mxPoint x="350" y="710" as="targetPoint" />
            <Array as="points">
              <mxPoint x="623" y="610" />
              <mxPoint x="350" y="610" />
              <mxPoint x="350" y="710" />
            </Array>
          </mxGeometry>
        </mxCell>
        <mxCell id="0wrOK7oNjDltKw8NBow_-24" value="Sentry&lt;br&gt;Error Tracking" style="rounded=0;whiteSpace=wrap;html=1;" parent="P0SyI0v3QPLrSSrKDHl5-1" vertex="1">
          <mxGeometry x="470" y="710" width="140" height="60" as="geometry" />
        </mxCell>
        <mxCell id="0wrOK7oNjDltKw8NBow_-25" style="edgeStyle=orthogonalEdgeStyle;rounded=0;orthogonalLoop=1;jettySize=auto;html=1;" parent="P0SyI0v3QPLrSSrKDHl5-1" source="P0SyI0v3QPLrSSrKDHl5-10" edge="1">
          <mxGeometry relative="1" as="geometry">
            <mxPoint x="540" y="710" as="targetPoint" />
            <Array as="points">
              <mxPoint x="623" y="610" />
              <mxPoint x="540" y="610" />
            </Array>
          </mxGeometry>
        </mxCell>
        <mxCell id="0wrOK7oNjDltKw8NBow_-28" style="edgeStyle=orthogonalEdgeStyle;rounded=0;orthogonalLoop=1;jettySize=auto;html=1;entryX=0.5;entryY=1;entryDx=0;entryDy=0;endArrow=none;endFill=0;startArrow=classic;startFill=1;" parent="P0SyI0v3QPLrSSrKDHl5-1" source="0wrOK7oNjDltKw8NBow_-26" target="P0SyI0v3QPLrSSrKDHl5-10" edge="1">
          <mxGeometry relative="1" as="geometry">
            <Array as="points">
              <mxPoint x="810" y="610" />
              <mxPoint x="623" y="610" />
            </Array>
          </mxGeometry>
        </mxCell>
        <mxCell id="0wrOK7oNjDltKw8NBow_-26" value="PureStake.io&lt;br&gt;Algorand RPC" style="rounded=0;whiteSpace=wrap;html=1;" parent="P0SyI0v3QPLrSSrKDHl5-1" vertex="1">
          <mxGeometry x="740" y="710" width="130" height="60" as="geometry" />
        </mxCell>
        <mxCell id="0wrOK7oNjDltKw8NBow_-29" style="edgeStyle=orthogonalEdgeStyle;rounded=0;orthogonalLoop=1;jettySize=auto;html=1;entryX=0.5;entryY=1;entryDx=0;entryDy=0;endArrow=none;endFill=0;startArrow=classic;startFill=1;" parent="P0SyI0v3QPLrSSrKDHl5-1" source="0wrOK7oNjDltKw8NBow_-27" target="P0SyI0v3QPLrSSrKDHl5-10" edge="1">
          <mxGeometry relative="1" as="geometry">
            <Array as="points">
              <mxPoint x="980" y="610" />
              <mxPoint x="623" y="610" />
            </Array>
          </mxGeometry>
        </mxCell>
        <mxCell id="0wrOK7oNjDltKw8NBow_-27" value="Infura.io&lt;br&gt;Mutlichain RPC" style="rounded=0;whiteSpace=wrap;html=1;" parent="P0SyI0v3QPLrSSrKDHl5-1" vertex="1">
          <mxGeometry x="910" y="710" width="140" height="60" as="geometry" />
        </mxCell>
        <mxCell id="0wrOK7oNjDltKw8NBow_-31" value="" style="group" parent="P0SyI0v3QPLrSSrKDHl5-1" vertex="1" connectable="0">
          <mxGeometry x="920" y="315" width="160" height="265" as="geometry" />
        </mxCell>
        <mxCell id="0wrOK7oNjDltKw8NBow_-0" value="" style="rounded=0;whiteSpace=wrap;html=1;strokeColor=#FF3333;" parent="0wrOK7oNjDltKw8NBow_-31" vertex="1">
          <mxGeometry y="30" width="155" height="235" as="geometry" />
        </mxCell>
        <mxCell id="P0SyI0v3QPLrSSrKDHl5-12" value="KMS API&lt;br&gt;Replica 1" style="fontColor=#0066CC;verticalAlign=top;verticalLabelPosition=bottom;labelPosition=center;align=center;html=1;outlineConnect=0;fillColor=#CCCCCC;strokeColor=#6881B3;gradientColor=none;gradientDirection=north;strokeWidth=2;shape=mxgraph.networks.virtual_server;" parent="0wrOK7oNjDltKw8NBow_-31" vertex="1">
          <mxGeometry x="50" y="55" width="50" height="50" as="geometry" />
        </mxCell>
        <mxCell id="P0SyI0v3QPLrSSrKDHl5-14" value="KMS API&lt;br&gt;Replica 2 ... n" style="fontColor=#0066CC;verticalAlign=top;verticalLabelPosition=bottom;labelPosition=center;align=center;html=1;outlineConnect=0;fillColor=#CCCCCC;strokeColor=#6881B3;gradientColor=none;gradientDirection=north;strokeWidth=2;shape=mxgraph.networks.virtual_server;" parent="0wrOK7oNjDltKw8NBow_-31" vertex="1">
          <mxGeometry x="50" y="165" width="50" height="50" as="geometry" />
        </mxCell>
        <mxCell id="0wrOK7oNjDltKw8NBow_-1" value="GCP Confidential VM" style="text;html=1;strokeColor=none;fillColor=none;align=center;verticalAlign=middle;whiteSpace=wrap;rounded=0;" parent="0wrOK7oNjDltKw8NBow_-31" vertex="1">
          <mxGeometry width="160" height="30" as="geometry" />
        </mxCell>
        <mxCell id="BqZbq1a60cqY82nW67I--3" style="edgeStyle=orthogonalEdgeStyle;rounded=0;orthogonalLoop=1;jettySize=auto;html=1;endArrow=none;endFill=0;" parent="0wrOK7oNjDltKw8NBow_-31" source="P0SyI0v3QPLrSSrKDHl5-12" target="P0SyI0v3QPLrSSrKDHl5-14" edge="1">
          <mxGeometry relative="1" as="geometry" />
        </mxCell>
        <mxCell id="MuD_cQ3klAhHsJhnSH7o-1" value="" style="rounded=0;orthogonalLoop=1;jettySize=auto;html=1;entryX=0;entryY=0.5;entryDx=0;entryDy=0;endArrow=none;endFill=0;" parent="P0SyI0v3QPLrSSrKDHl5-1" source="MuD_cQ3klAhHsJhnSH7o-2" target="MuD_cQ3klAhHsJhnSH7o-0" edge="1">
          <mxGeometry relative="1" as="geometry">
            <mxPoint x="700" y="463" as="sourcePoint" />
            <mxPoint x="890" y="463" as="targetPoint" />
          </mxGeometry>
        </mxCell>
        <mxCell id="MuD_cQ3klAhHsJhnSH7o-0" value="Ingress &lt;br&gt;Load Balancer&lt;br&gt;&amp;nbsp;Firewall" style="aspect=fixed;perimeter=ellipsePerimeter;html=1;align=center;shadow=0;dashed=0;spacingTop=3;image;image=img/lib/active_directory/firewall.svg;" parent="P0SyI0v3QPLrSSrKDHl5-1" vertex="1">
          <mxGeometry x="850" y="417.5" width="54.9" height="90" as="geometry" />
        </mxCell>
        <mxCell id="MuD_cQ3klAhHsJhnSH7o-3" value="" style="edgeStyle=orthogonalEdgeStyle;rounded=0;orthogonalLoop=1;jettySize=auto;html=1;entryX=0;entryY=0.5;entryDx=0;entryDy=0;endArrow=classic;endFill=1;" parent="P0SyI0v3QPLrSSrKDHl5-1" source="P0SyI0v3QPLrSSrKDHl5-10" target="MuD_cQ3klAhHsJhnSH7o-2" edge="1">
          <mxGeometry relative="1" as="geometry">
            <mxPoint x="700" y="463" as="sourcePoint" />
            <mxPoint x="850" y="463" as="targetPoint" />
          </mxGeometry>
        </mxCell>
        <mxCell id="MuD_cQ3klAhHsJhnSH7o-2" value="Wallaby KMS Service&lt;br&gt;Load Balancer" style="fontColor=#0066CC;verticalAlign=top;verticalLabelPosition=bottom;labelPosition=center;align=center;html=1;outlineConnect=0;fillColor=#CCCCCC;strokeColor=#6881B3;gradientColor=none;gradientDirection=north;strokeWidth=2;shape=mxgraph.networks.load_balancer;" parent="P0SyI0v3QPLrSSrKDHl5-1" vertex="1">
          <mxGeometry x="730" y="447.5" width="100" height="30" as="geometry" />
        </mxCell>
        <mxCell id="jsOZvl3KmxfUKyfdofQO-9" value="" style="group" vertex="1" connectable="0" parent="P0SyI0v3QPLrSSrKDHl5-1">
          <mxGeometry x="530" y="315" width="170" height="265" as="geometry" />
        </mxCell>
        <mxCell id="P0SyI0v3QPLrSSrKDHl5-15" value="GCP Confidential &lt;br&gt;Autoscaling Kubernetes" style="text;html=1;strokeColor=none;fillColor=none;align=center;verticalAlign=middle;whiteSpace=wrap;rounded=0;" parent="jsOZvl3KmxfUKyfdofQO-9" vertex="1">
          <mxGeometry width="170" height="30" as="geometry" />
        </mxCell>
        <mxCell id="P0SyI0v3QPLrSSrKDHl5-10" value="" style="rounded=0;whiteSpace=wrap;html=1;strokeColor=#FF3333;" parent="jsOZvl3KmxfUKyfdofQO-9" vertex="1">
          <mxGeometry y="30" width="170" height="235" as="geometry" />
        </mxCell>
        <mxCell id="jsOZvl3KmxfUKyfdofQO-0" value="" style="group" vertex="1" connectable="0" parent="jsOZvl3KmxfUKyfdofQO-9">
          <mxGeometry x="22" y="65" width="46" height="150" as="geometry" />
        </mxCell>
        <mxCell id="P0SyI0v3QPLrSSrKDHl5-11" value="Mainnet API&lt;br&gt;Replica 1" style="fontColor=#0066CC;verticalAlign=top;verticalLabelPosition=bottom;labelPosition=center;align=center;html=1;outlineConnect=0;fillColor=#CCCCCC;strokeColor=#6881B3;gradientColor=none;gradientDirection=north;strokeWidth=2;shape=mxgraph.networks.virtual_server;" parent="jsOZvl3KmxfUKyfdofQO-0" vertex="1">
          <mxGeometry width="46" height="46.15384615384615" as="geometry" />
        </mxCell>
        <mxCell id="P0SyI0v3QPLrSSrKDHl5-13" value="Mainnet API&lt;br&gt;Replica 2 ... n" style="fontColor=#0066CC;verticalAlign=top;verticalLabelPosition=bottom;labelPosition=center;align=center;html=1;outlineConnect=0;fillColor=#CCCCCC;strokeColor=#6881B3;gradientColor=none;gradientDirection=north;strokeWidth=2;shape=mxgraph.networks.virtual_server;" parent="jsOZvl3KmxfUKyfdofQO-0" vertex="1">
          <mxGeometry y="103.84615384615385" width="46" height="46.15384615384615" as="geometry" />
        </mxCell>
        <mxCell id="BqZbq1a60cqY82nW67I--2" style="edgeStyle=orthogonalEdgeStyle;rounded=0;orthogonalLoop=1;jettySize=auto;html=1;endArrow=none;endFill=0;" parent="jsOZvl3KmxfUKyfdofQO-0" source="P0SyI0v3QPLrSSrKDHl5-13" target="P0SyI0v3QPLrSSrKDHl5-11" edge="1">
          <mxGeometry relative="1" as="geometry" />
        </mxCell>
        <mxCell id="jsOZvl3KmxfUKyfdofQO-1" value="" style="group" vertex="1" connectable="0" parent="jsOZvl3KmxfUKyfdofQO-9">
          <mxGeometry x="105" y="65" width="46" height="150" as="geometry" />
        </mxCell>
        <mxCell id="jsOZvl3KmxfUKyfdofQO-2" value="Testnet API&lt;br&gt;Replica 1" style="fontColor=#0066CC;verticalAlign=top;verticalLabelPosition=bottom;labelPosition=center;align=center;html=1;outlineConnect=0;fillColor=#CCCCCC;strokeColor=#6881B3;gradientColor=none;gradientDirection=north;strokeWidth=2;shape=mxgraph.networks.virtual_server;" vertex="1" parent="jsOZvl3KmxfUKyfdofQO-1">
          <mxGeometry width="46" height="46.15384615384615" as="geometry" />
        </mxCell>
        <mxCell id="jsOZvl3KmxfUKyfdofQO-3" value="Testnet API&lt;br&gt;Replica 2 ... n" style="fontColor=#0066CC;verticalAlign=top;verticalLabelPosition=bottom;labelPosition=center;align=center;html=1;outlineConnect=0;fillColor=#CCCCCC;strokeColor=#6881B3;gradientColor=none;gradientDirection=north;strokeWidth=2;shape=mxgraph.networks.virtual_server;" vertex="1" parent="jsOZvl3KmxfUKyfdofQO-1">
          <mxGeometry y="103.84615384615384" width="46" height="46.15384615384615" as="geometry" />
        </mxCell>
        <mxCell id="jsOZvl3KmxfUKyfdofQO-4" style="edgeStyle=orthogonalEdgeStyle;rounded=0;orthogonalLoop=1;jettySize=auto;html=1;endArrow=none;endFill=0;" edge="1" parent="jsOZvl3KmxfUKyfdofQO-1" source="jsOZvl3KmxfUKyfdofQO-3" target="jsOZvl3KmxfUKyfdofQO-2">
          <mxGeometry relative="1" as="geometry" />
        </mxCell>
      </root>
    </mxGraphModel>
  </diagram>
  <diagram name="System Design - External" id="fffXmWJ2Tpt-ko9rR54G">
    <mxGraphModel dx="1140" dy="771" grid="1" gridSize="10" guides="1" tooltips="1" connect="1" arrows="1" fold="1" page="1" pageScale="1" pageWidth="1100" pageHeight="850" math="0" shadow="0">
      <root>
        <mxCell id="g_iQ5Jw8C-U9P2gscICG-0" />
        <mxCell id="g_iQ5Jw8C-U9P2gscICG-1" parent="g_iQ5Jw8C-U9P2gscICG-0" />
        <mxCell id="g_iQ5Jw8C-U9P2gscICG-2" value="" style="rounded=0;whiteSpace=wrap;html=1;strokeWidth=2;" vertex="1" parent="g_iQ5Jw8C-U9P2gscICG-1">
          <mxGeometry x="259.25" y="70" width="830" height="575" as="geometry" />
        </mxCell>
        <mxCell id="g_iQ5Jw8C-U9P2gscICG-3" style="edgeStyle=orthogonalEdgeStyle;rounded=0;orthogonalLoop=1;jettySize=auto;html=1;" edge="1" parent="g_iQ5Jw8C-U9P2gscICG-1" source="g_iQ5Jw8C-U9P2gscICG-4" target="g_iQ5Jw8C-U9P2gscICG-28">
          <mxGeometry relative="1" as="geometry" />
        </mxCell>
        <mxCell id="g_iQ5Jw8C-U9P2gscICG-4" value="Postgres Master&lt;br&gt;Database" style="fontColor=#0066CC;verticalAlign=top;verticalLabelPosition=bottom;labelPosition=center;align=center;html=1;outlineConnect=0;fillColor=#CCCCCC;strokeColor=#6881B3;gradientColor=none;gradientDirection=north;strokeWidth=2;shape=mxgraph.networks.storage;" vertex="1" parent="g_iQ5Jw8C-U9P2gscICG-1">
          <mxGeometry x="750" y="118.07999999999998" width="50" height="65" as="geometry" />
        </mxCell>
        <mxCell id="g_iQ5Jw8C-U9P2gscICG-5" style="rounded=0;orthogonalLoop=1;jettySize=auto;html=1;endArrow=none;endFill=0;startArrow=none;entryX=0;entryY=0.5;entryDx=0;entryDy=0;entryPerimeter=0;" edge="1" parent="g_iQ5Jw8C-U9P2gscICG-1" source="g_iQ5Jw8C-U9P2gscICG-6" target="g_iQ5Jw8C-U9P2gscICG-4">
          <mxGeometry relative="1" as="geometry">
            <mxPoint x="800" y="470.4000000000001" as="sourcePoint" />
            <mxPoint x="920" y="470" as="targetPoint" />
          </mxGeometry>
        </mxCell>
        <mxCell id="g_iQ5Jw8C-U9P2gscICG-6" value="Firewall" style="aspect=fixed;perimeter=ellipsePerimeter;html=1;align=center;shadow=0;dashed=0;spacingTop=3;image;image=img/lib/active_directory/firewall.svg;" vertex="1" parent="g_iQ5Jw8C-U9P2gscICG-1">
          <mxGeometry x="654.25" y="117.5" width="40" height="65.57" as="geometry" />
        </mxCell>
        <mxCell id="g_iQ5Jw8C-U9P2gscICG-7" value="" style="rounded=0;orthogonalLoop=1;jettySize=auto;html=1;endArrow=none;endFill=0;exitX=0.844;exitY=-0.014;exitDx=0;exitDy=0;exitPerimeter=0;" edge="1" parent="g_iQ5Jw8C-U9P2gscICG-1" source="g_iQ5Jw8C-U9P2gscICG-53" target="g_iQ5Jw8C-U9P2gscICG-6">
          <mxGeometry relative="1" as="geometry">
            <mxPoint x="867" y="345" as="sourcePoint" />
            <mxPoint x="920" y="470" as="targetPoint" />
          </mxGeometry>
        </mxCell>
        <mxCell id="g_iQ5Jw8C-U9P2gscICG-8" style="edgeStyle=orthogonalEdgeStyle;rounded=0;orthogonalLoop=1;jettySize=auto;html=1;entryX=0;entryY=0.5;entryDx=0;entryDy=0;entryPerimeter=0;endArrow=none;endFill=0;exitX=0.875;exitY=0.5;exitDx=0;exitDy=0;exitPerimeter=0;" edge="1" parent="g_iQ5Jw8C-U9P2gscICG-1" source="g_iQ5Jw8C-U9P2gscICG-9" target="g_iQ5Jw8C-U9P2gscICG-18">
          <mxGeometry relative="1" as="geometry" />
        </mxCell>
        <mxCell id="g_iQ5Jw8C-U9P2gscICG-9" value="Proxy" style="ellipse;shape=cloud;whiteSpace=wrap;html=1;fontSize=14;" vertex="1" parent="g_iQ5Jw8C-U9P2gscICG-1">
          <mxGeometry x="10" y="400" width="200" height="125" as="geometry" />
        </mxCell>
        <mxCell id="g_iQ5Jw8C-U9P2gscICG-10" style="rounded=0;orthogonalLoop=1;jettySize=auto;html=1;entryX=0.49;entryY=0.109;entryDx=0;entryDy=0;entryPerimeter=0;endArrow=none;endFill=0;" edge="1" parent="g_iQ5Jw8C-U9P2gscICG-1" source="g_iQ5Jw8C-U9P2gscICG-11" target="g_iQ5Jw8C-U9P2gscICG-9">
          <mxGeometry relative="1" as="geometry" />
        </mxCell>
        <mxCell id="g_iQ5Jw8C-U9P2gscICG-11" value="Client 1" style="fontColor=#0066CC;verticalAlign=top;verticalLabelPosition=bottom;labelPosition=center;align=center;html=1;outlineConnect=0;fillColor=#CCCCCC;strokeColor=#6881B3;gradientColor=none;gradientDirection=north;strokeWidth=2;shape=mxgraph.networks.pc;" vertex="1" parent="g_iQ5Jw8C-U9P2gscICG-1">
          <mxGeometry x="60" y="285" width="100" height="70" as="geometry" />
        </mxCell>
        <mxCell id="g_iQ5Jw8C-U9P2gscICG-12" style="rounded=0;orthogonalLoop=1;jettySize=auto;html=1;entryX=0.473;entryY=0.947;entryDx=0;entryDy=0;entryPerimeter=0;endArrow=none;endFill=0;" edge="1" parent="g_iQ5Jw8C-U9P2gscICG-1" source="g_iQ5Jw8C-U9P2gscICG-13" target="g_iQ5Jw8C-U9P2gscICG-9">
          <mxGeometry relative="1" as="geometry" />
        </mxCell>
        <mxCell id="g_iQ5Jw8C-U9P2gscICG-13" value="Client 2" style="fontColor=#0066CC;verticalAlign=top;verticalLabelPosition=bottom;labelPosition=center;align=center;html=1;outlineConnect=0;fillColor=#CCCCCC;strokeColor=#6881B3;gradientColor=none;gradientDirection=north;strokeWidth=2;shape=mxgraph.networks.laptop;" vertex="1" parent="g_iQ5Jw8C-U9P2gscICG-1">
          <mxGeometry x="55" y="575" width="100" height="55" as="geometry" />
        </mxCell>
        <mxCell id="g_iQ5Jw8C-U9P2gscICG-14" value="Ingress&amp;nbsp;Firewall" style="aspect=fixed;perimeter=ellipsePerimeter;html=1;align=center;shadow=0;dashed=0;spacingTop=3;image;image=img/lib/active_directory/firewall.svg;" vertex="1" parent="g_iQ5Jw8C-U9P2gscICG-1">
          <mxGeometry x="450" y="417.5" width="54.9" height="90" as="geometry" />
        </mxCell>
        <mxCell id="g_iQ5Jw8C-U9P2gscICG-15" value="" style="edgeStyle=orthogonalEdgeStyle;rounded=0;orthogonalLoop=1;jettySize=auto;html=1;endArrow=none;endFill=0;" edge="1" parent="g_iQ5Jw8C-U9P2gscICG-1" source="g_iQ5Jw8C-U9P2gscICG-18" target="g_iQ5Jw8C-U9P2gscICG-14">
          <mxGeometry relative="1" as="geometry" />
        </mxCell>
        <mxCell id="g_iQ5Jw8C-U9P2gscICG-16" style="edgeStyle=orthogonalEdgeStyle;rounded=0;orthogonalLoop=1;jettySize=auto;html=1;entryX=0;entryY=0.5;entryDx=0;entryDy=0;endArrow=none;endFill=0;startArrow=none;" edge="1" parent="g_iQ5Jw8C-U9P2gscICG-1" source="g_iQ5Jw8C-U9P2gscICG-14" target="g_iQ5Jw8C-U9P2gscICG-53">
          <mxGeometry relative="1" as="geometry">
            <mxPoint x="560" y="480" as="targetPoint" />
          </mxGeometry>
        </mxCell>
        <mxCell id="g_iQ5Jw8C-U9P2gscICG-17" value="" style="edgeStyle=orthogonalEdgeStyle;rounded=0;orthogonalLoop=1;jettySize=auto;html=1;entryX=0;entryY=0.5;entryDx=0;entryDy=0;endArrow=none;endFill=0;" edge="1" parent="g_iQ5Jw8C-U9P2gscICG-1" source="g_iQ5Jw8C-U9P2gscICG-18" target="g_iQ5Jw8C-U9P2gscICG-14">
          <mxGeometry relative="1" as="geometry">
            <mxPoint x="435" y="470" as="sourcePoint" />
            <mxPoint x="545" y="470" as="targetPoint" />
          </mxGeometry>
        </mxCell>
        <mxCell id="g_iQ5Jw8C-U9P2gscICG-18" value="Load Balancer" style="fontColor=#0066CC;verticalAlign=top;verticalLabelPosition=bottom;labelPosition=center;align=center;html=1;outlineConnect=0;fillColor=#CCCCCC;strokeColor=#6881B3;gradientColor=none;gradientDirection=north;strokeWidth=2;shape=mxgraph.networks.load_balancer;" vertex="1" parent="g_iQ5Jw8C-U9P2gscICG-1">
          <mxGeometry x="295" y="447.5" width="100" height="30" as="geometry" />
        </mxCell>
        <mxCell id="g_iQ5Jw8C-U9P2gscICG-19" style="edgeStyle=orthogonalEdgeStyle;rounded=0;orthogonalLoop=1;jettySize=auto;html=1;endArrow=none;endFill=0;entryX=0.5;entryY=1;entryDx=0;entryDy=0;" edge="1" parent="g_iQ5Jw8C-U9P2gscICG-1" source="g_iQ5Jw8C-U9P2gscICG-20" target="g_iQ5Jw8C-U9P2gscICG-45">
          <mxGeometry relative="1" as="geometry">
            <mxPoint x="880" y="455" as="targetPoint" />
            <Array as="points">
              <mxPoint x="1020" y="258" />
              <mxPoint x="970" y="258" />
            </Array>
          </mxGeometry>
        </mxCell>
        <mxCell id="g_iQ5Jw8C-U9P2gscICG-20" value="Secure &lt;br&gt;Key Management" style="fontColor=#0066CC;verticalAlign=top;verticalLabelPosition=bottom;labelPosition=center;align=center;html=1;outlineConnect=0;fillColor=#CCCCCC;strokeColor=#6881B3;gradientColor=none;gradientDirection=north;strokeWidth=2;shape=mxgraph.networks.server;" vertex="1" parent="g_iQ5Jw8C-U9P2gscICG-1">
          <mxGeometry x="990" y="118.08000000000001" width="60" height="90" as="geometry" />
        </mxCell>
        <mxCell id="g_iQ5Jw8C-U9P2gscICG-21" value="Private Network Connection&lt;br&gt;with an API Key" style="text;html=1;strokeColor=none;fillColor=none;align=center;verticalAlign=middle;whiteSpace=wrap;rounded=0;" vertex="1" parent="g_iQ5Jw8C-U9P2gscICG-1">
          <mxGeometry x="720" y="410" width="120" height="30" as="geometry" />
        </mxCell>
        <mxCell id="g_iQ5Jw8C-U9P2gscICG-22" style="edgeStyle=orthogonalEdgeStyle;rounded=0;orthogonalLoop=1;jettySize=auto;html=1;entryX=0;entryY=0.5;entryDx=0;entryDy=0;endArrow=none;endFill=0;" edge="1" parent="g_iQ5Jw8C-U9P2gscICG-1" source="g_iQ5Jw8C-U9P2gscICG-48" target="g_iQ5Jw8C-U9P2gscICG-42">
          <mxGeometry relative="1" as="geometry" />
        </mxCell>
        <mxCell id="g_iQ5Jw8C-U9P2gscICG-23" style="edgeStyle=orthogonalEdgeStyle;rounded=0;orthogonalLoop=1;jettySize=auto;html=1;endArrow=none;endFill=0;" edge="1" parent="g_iQ5Jw8C-U9P2gscICG-1" source="g_iQ5Jw8C-U9P2gscICG-25" target="g_iQ5Jw8C-U9P2gscICG-27">
          <mxGeometry relative="1" as="geometry" />
        </mxCell>
        <mxCell id="g_iQ5Jw8C-U9P2gscICG-24" style="rounded=0;orthogonalLoop=1;jettySize=auto;html=1;entryX=0.142;entryY=0.003;entryDx=0;entryDy=0;entryPerimeter=0;endArrow=none;endFill=0;" edge="1" parent="g_iQ5Jw8C-U9P2gscICG-1" source="g_iQ5Jw8C-U9P2gscICG-25" target="g_iQ5Jw8C-U9P2gscICG-53">
          <mxGeometry relative="1" as="geometry" />
        </mxCell>
        <mxCell id="g_iQ5Jw8C-U9P2gscICG-25" value="Firewall" style="aspect=fixed;perimeter=ellipsePerimeter;html=1;align=center;shadow=0;dashed=0;spacingTop=3;image;image=img/lib/active_directory/firewall.svg;" vertex="1" parent="g_iQ5Jw8C-U9P2gscICG-1">
          <mxGeometry x="530.0000000000001" y="117.5" width="40" height="65.58" as="geometry" />
        </mxCell>
        <mxCell id="g_iQ5Jw8C-U9P2gscICG-26" style="edgeStyle=orthogonalEdgeStyle;rounded=0;orthogonalLoop=1;jettySize=auto;html=1;" edge="1" parent="g_iQ5Jw8C-U9P2gscICG-1" source="g_iQ5Jw8C-U9P2gscICG-27" target="g_iQ5Jw8C-U9P2gscICG-29">
          <mxGeometry relative="1" as="geometry" />
        </mxCell>
        <mxCell id="g_iQ5Jw8C-U9P2gscICG-27" value="Redis Master&lt;br&gt;Database" style="fontColor=#0066CC;verticalAlign=top;verticalLabelPosition=bottom;labelPosition=center;align=center;html=1;outlineConnect=0;fillColor=#CCCCCC;strokeColor=#6881B3;gradientColor=none;gradientDirection=north;strokeWidth=2;shape=mxgraph.networks.storage;" vertex="1" parent="g_iQ5Jw8C-U9P2gscICG-1">
          <mxGeometry x="440" y="120.28999999999999" width="50" height="60" as="geometry" />
        </mxCell>
        <mxCell id="g_iQ5Jw8C-U9P2gscICG-28" value="1...N Postgres Replica&lt;br&gt;Database" style="fontColor=#0066CC;verticalAlign=top;verticalLabelPosition=bottom;labelPosition=center;align=center;html=1;outlineConnect=0;fillColor=#CCCCCC;strokeColor=#6881B3;gradientColor=none;gradientDirection=north;strokeWidth=2;shape=mxgraph.networks.storage;" vertex="1" parent="g_iQ5Jw8C-U9P2gscICG-1">
          <mxGeometry x="890" y="120.57999999999998" width="50" height="60" as="geometry" />
        </mxCell>
        <mxCell id="g_iQ5Jw8C-U9P2gscICG-29" value="1...N Redis Replica&lt;br&gt;Database" style="fontColor=#0066CC;verticalAlign=top;verticalLabelPosition=bottom;labelPosition=center;align=center;html=1;outlineConnect=0;fillColor=#CCCCCC;strokeColor=#6881B3;gradientColor=none;gradientDirection=north;strokeWidth=2;shape=mxgraph.networks.storage;" vertex="1" parent="g_iQ5Jw8C-U9P2gscICG-1">
          <mxGeometry x="320" y="120.28999999999999" width="50" height="60" as="geometry" />
        </mxCell>
        <mxCell id="g_iQ5Jw8C-U9P2gscICG-30" value="" style="rounded=0;whiteSpace=wrap;html=1;dashed=1;dashPattern=8 8;" vertex="1" parent="g_iQ5Jw8C-U9P2gscICG-1">
          <mxGeometry x="260" y="665" width="830" height="125" as="geometry" />
        </mxCell>
        <mxCell id="g_iQ5Jw8C-U9P2gscICG-31" value="Cloud Provider" style="text;html=1;strokeColor=none;fillColor=none;align=center;verticalAlign=middle;whiteSpace=wrap;rounded=0;fontStyle=1;fontSize=14;" vertex="1" parent="g_iQ5Jw8C-U9P2gscICG-1">
          <mxGeometry x="619.25" y="75" width="110" height="30" as="geometry" />
        </mxCell>
        <mxCell id="g_iQ5Jw8C-U9P2gscICG-32" value="External Services" style="text;html=1;strokeColor=none;fillColor=none;align=center;verticalAlign=middle;whiteSpace=wrap;rounded=0;fontStyle=1;fontSize=14;" vertex="1" parent="g_iQ5Jw8C-U9P2gscICG-1">
          <mxGeometry x="600" y="665" width="130" height="30" as="geometry" />
        </mxCell>
        <mxCell id="g_iQ5Jw8C-U9P2gscICG-33" value="Application Monitoring" style="rounded=0;whiteSpace=wrap;html=1;" vertex="1" parent="g_iQ5Jw8C-U9P2gscICG-1">
          <mxGeometry x="290" y="710" width="130" height="60" as="geometry" />
        </mxCell>
        <mxCell id="g_iQ5Jw8C-U9P2gscICG-34" style="edgeStyle=orthogonalEdgeStyle;rounded=0;orthogonalLoop=1;jettySize=auto;html=1;" edge="1" parent="g_iQ5Jw8C-U9P2gscICG-1" source="g_iQ5Jw8C-U9P2gscICG-53">
          <mxGeometry relative="1" as="geometry">
            <mxPoint x="350" y="710" as="targetPoint" />
            <Array as="points">
              <mxPoint x="623" y="610" />
              <mxPoint x="350" y="610" />
              <mxPoint x="350" y="710" />
            </Array>
          </mxGeometry>
        </mxCell>
        <mxCell id="g_iQ5Jw8C-U9P2gscICG-35" value="Exception&lt;br&gt;Error Tracking" style="rounded=0;whiteSpace=wrap;html=1;" vertex="1" parent="g_iQ5Jw8C-U9P2gscICG-1">
          <mxGeometry x="470" y="710" width="140" height="60" as="geometry" />
        </mxCell>
        <mxCell id="g_iQ5Jw8C-U9P2gscICG-36" style="edgeStyle=orthogonalEdgeStyle;rounded=0;orthogonalLoop=1;jettySize=auto;html=1;" edge="1" parent="g_iQ5Jw8C-U9P2gscICG-1" source="g_iQ5Jw8C-U9P2gscICG-53">
          <mxGeometry relative="1" as="geometry">
            <mxPoint x="540" y="710" as="targetPoint" />
            <Array as="points">
              <mxPoint x="623" y="610" />
              <mxPoint x="540" y="610" />
            </Array>
          </mxGeometry>
        </mxCell>
        <mxCell id="g_iQ5Jw8C-U9P2gscICG-37" style="edgeStyle=orthogonalEdgeStyle;rounded=0;orthogonalLoop=1;jettySize=auto;html=1;entryX=0.5;entryY=1;entryDx=0;entryDy=0;endArrow=none;endFill=0;startArrow=classic;startFill=1;" edge="1" parent="g_iQ5Jw8C-U9P2gscICG-1" source="g_iQ5Jw8C-U9P2gscICG-38" target="g_iQ5Jw8C-U9P2gscICG-53">
          <mxGeometry relative="1" as="geometry">
            <Array as="points">
              <mxPoint x="810" y="610" />
              <mxPoint x="623" y="610" />
            </Array>
          </mxGeometry>
        </mxCell>
        <mxCell id="g_iQ5Jw8C-U9P2gscICG-38" value="RPC 1" style="rounded=0;whiteSpace=wrap;html=1;" vertex="1" parent="g_iQ5Jw8C-U9P2gscICG-1">
          <mxGeometry x="740" y="710" width="130" height="60" as="geometry" />
        </mxCell>
        <mxCell id="g_iQ5Jw8C-U9P2gscICG-39" style="edgeStyle=orthogonalEdgeStyle;rounded=0;orthogonalLoop=1;jettySize=auto;html=1;entryX=0.5;entryY=1;entryDx=0;entryDy=0;endArrow=none;endFill=0;startArrow=classic;startFill=1;" edge="1" parent="g_iQ5Jw8C-U9P2gscICG-1" source="g_iQ5Jw8C-U9P2gscICG-40" target="g_iQ5Jw8C-U9P2gscICG-53">
          <mxGeometry relative="1" as="geometry">
            <Array as="points">
              <mxPoint x="980" y="610" />
              <mxPoint x="623" y="610" />
            </Array>
          </mxGeometry>
        </mxCell>
        <mxCell id="g_iQ5Jw8C-U9P2gscICG-40" value="RPC 2 ... N" style="rounded=0;whiteSpace=wrap;html=1;" vertex="1" parent="g_iQ5Jw8C-U9P2gscICG-1">
          <mxGeometry x="910" y="710" width="140" height="60" as="geometry" />
        </mxCell>
        <mxCell id="g_iQ5Jw8C-U9P2gscICG-41" value="" style="group" vertex="1" connectable="0" parent="g_iQ5Jw8C-U9P2gscICG-1">
          <mxGeometry x="920" y="315" width="160" height="265" as="geometry" />
        </mxCell>
        <mxCell id="g_iQ5Jw8C-U9P2gscICG-42" value="" style="rounded=0;whiteSpace=wrap;html=1;strokeColor=#FF3333;" vertex="1" parent="g_iQ5Jw8C-U9P2gscICG-41">
          <mxGeometry y="30" width="155" height="235" as="geometry" />
        </mxCell>
        <mxCell id="g_iQ5Jw8C-U9P2gscICG-43" value="KMS API&lt;br&gt;Replica 1" style="fontColor=#0066CC;verticalAlign=top;verticalLabelPosition=bottom;labelPosition=center;align=center;html=1;outlineConnect=0;fillColor=#CCCCCC;strokeColor=#6881B3;gradientColor=none;gradientDirection=north;strokeWidth=2;shape=mxgraph.networks.virtual_server;" vertex="1" parent="g_iQ5Jw8C-U9P2gscICG-41">
          <mxGeometry x="50" y="55" width="50" height="50" as="geometry" />
        </mxCell>
        <mxCell id="g_iQ5Jw8C-U9P2gscICG-44" value="KMS API&lt;br&gt;Replica 2 ... n" style="fontColor=#0066CC;verticalAlign=top;verticalLabelPosition=bottom;labelPosition=center;align=center;html=1;outlineConnect=0;fillColor=#CCCCCC;strokeColor=#6881B3;gradientColor=none;gradientDirection=north;strokeWidth=2;shape=mxgraph.networks.virtual_server;" vertex="1" parent="g_iQ5Jw8C-U9P2gscICG-41">
          <mxGeometry x="50" y="165" width="50" height="50" as="geometry" />
        </mxCell>
        <mxCell id="g_iQ5Jw8C-U9P2gscICG-45" value="GCP Confidential VM" style="text;html=1;strokeColor=none;fillColor=none;align=center;verticalAlign=middle;whiteSpace=wrap;rounded=0;" vertex="1" parent="g_iQ5Jw8C-U9P2gscICG-41">
          <mxGeometry width="160" height="30" as="geometry" />
        </mxCell>
        <mxCell id="g_iQ5Jw8C-U9P2gscICG-46" style="edgeStyle=orthogonalEdgeStyle;rounded=0;orthogonalLoop=1;jettySize=auto;html=1;endArrow=none;endFill=0;" edge="1" parent="g_iQ5Jw8C-U9P2gscICG-41" source="g_iQ5Jw8C-U9P2gscICG-43" target="g_iQ5Jw8C-U9P2gscICG-44">
          <mxGeometry relative="1" as="geometry" />
        </mxCell>
        <mxCell id="g_iQ5Jw8C-U9P2gscICG-47" value="" style="rounded=0;orthogonalLoop=1;jettySize=auto;html=1;entryX=0;entryY=0.5;entryDx=0;entryDy=0;endArrow=none;endFill=0;" edge="1" parent="g_iQ5Jw8C-U9P2gscICG-1" source="g_iQ5Jw8C-U9P2gscICG-50" target="g_iQ5Jw8C-U9P2gscICG-48">
          <mxGeometry relative="1" as="geometry">
            <mxPoint x="700" y="463" as="sourcePoint" />
            <mxPoint x="890" y="463" as="targetPoint" />
          </mxGeometry>
        </mxCell>
        <mxCell id="g_iQ5Jw8C-U9P2gscICG-48" value="Ingress &lt;br&gt;Load Balancer&lt;br&gt;&amp;nbsp;Firewall" style="aspect=fixed;perimeter=ellipsePerimeter;html=1;align=center;shadow=0;dashed=0;spacingTop=3;image;image=img/lib/active_directory/firewall.svg;" vertex="1" parent="g_iQ5Jw8C-U9P2gscICG-1">
          <mxGeometry x="850" y="417.5" width="54.9" height="90" as="geometry" />
        </mxCell>
        <mxCell id="g_iQ5Jw8C-U9P2gscICG-49" value="" style="edgeStyle=orthogonalEdgeStyle;rounded=0;orthogonalLoop=1;jettySize=auto;html=1;entryX=0;entryY=0.5;entryDx=0;entryDy=0;endArrow=classic;endFill=1;" edge="1" parent="g_iQ5Jw8C-U9P2gscICG-1" source="g_iQ5Jw8C-U9P2gscICG-53" target="g_iQ5Jw8C-U9P2gscICG-50">
          <mxGeometry relative="1" as="geometry">
            <mxPoint x="700" y="463" as="sourcePoint" />
            <mxPoint x="850" y="463" as="targetPoint" />
          </mxGeometry>
        </mxCell>
        <mxCell id="g_iQ5Jw8C-U9P2gscICG-50" value="KMS Service&lt;br&gt;Load Balancer" style="fontColor=#0066CC;verticalAlign=top;verticalLabelPosition=bottom;labelPosition=center;align=center;html=1;outlineConnect=0;fillColor=#CCCCCC;strokeColor=#6881B3;gradientColor=none;gradientDirection=north;strokeWidth=2;shape=mxgraph.networks.load_balancer;" vertex="1" parent="g_iQ5Jw8C-U9P2gscICG-1">
          <mxGeometry x="730" y="447.5" width="100" height="30" as="geometry" />
        </mxCell>
        <mxCell id="g_iQ5Jw8C-U9P2gscICG-51" value="" style="group" vertex="1" connectable="0" parent="g_iQ5Jw8C-U9P2gscICG-1">
          <mxGeometry x="530" y="315" width="170" height="265" as="geometry" />
        </mxCell>
        <mxCell id="g_iQ5Jw8C-U9P2gscICG-52" value="Confidential Computing&lt;br&gt;Autoscaling Kubernetes" style="text;html=1;strokeColor=none;fillColor=none;align=center;verticalAlign=middle;whiteSpace=wrap;rounded=0;" vertex="1" parent="g_iQ5Jw8C-U9P2gscICG-51">
          <mxGeometry width="170" height="30" as="geometry" />
        </mxCell>
        <mxCell id="g_iQ5Jw8C-U9P2gscICG-53" value="" style="rounded=0;whiteSpace=wrap;html=1;strokeColor=#FF3333;" vertex="1" parent="g_iQ5Jw8C-U9P2gscICG-51">
          <mxGeometry y="30" width="170" height="235" as="geometry" />
        </mxCell>
        <mxCell id="g_iQ5Jw8C-U9P2gscICG-54" value="" style="group" vertex="1" connectable="0" parent="g_iQ5Jw8C-U9P2gscICG-51">
          <mxGeometry x="22" y="65" width="46" height="150" as="geometry" />
        </mxCell>
        <mxCell id="g_iQ5Jw8C-U9P2gscICG-55" value="Mainnet API&lt;br&gt;Replica 1" style="fontColor=#0066CC;verticalAlign=top;verticalLabelPosition=bottom;labelPosition=center;align=center;html=1;outlineConnect=0;fillColor=#CCCCCC;strokeColor=#6881B3;gradientColor=none;gradientDirection=north;strokeWidth=2;shape=mxgraph.networks.virtual_server;" vertex="1" parent="g_iQ5Jw8C-U9P2gscICG-54">
          <mxGeometry width="46" height="46.15384615384615" as="geometry" />
        </mxCell>
        <mxCell id="g_iQ5Jw8C-U9P2gscICG-56" value="Mainnet API&lt;br&gt;Replica 2 ... n" style="fontColor=#0066CC;verticalAlign=top;verticalLabelPosition=bottom;labelPosition=center;align=center;html=1;outlineConnect=0;fillColor=#CCCCCC;strokeColor=#6881B3;gradientColor=none;gradientDirection=north;strokeWidth=2;shape=mxgraph.networks.virtual_server;" vertex="1" parent="g_iQ5Jw8C-U9P2gscICG-54">
          <mxGeometry y="103.84615384615385" width="46" height="46.15384615384615" as="geometry" />
        </mxCell>
        <mxCell id="g_iQ5Jw8C-U9P2gscICG-57" style="edgeStyle=orthogonalEdgeStyle;rounded=0;orthogonalLoop=1;jettySize=auto;html=1;endArrow=none;endFill=0;" edge="1" parent="g_iQ5Jw8C-U9P2gscICG-54" source="g_iQ5Jw8C-U9P2gscICG-56" target="g_iQ5Jw8C-U9P2gscICG-55">
          <mxGeometry relative="1" as="geometry" />
        </mxCell>
        <mxCell id="g_iQ5Jw8C-U9P2gscICG-58" value="" style="group" vertex="1" connectable="0" parent="g_iQ5Jw8C-U9P2gscICG-51">
          <mxGeometry x="105" y="65" width="46" height="150" as="geometry" />
        </mxCell>
        <mxCell id="g_iQ5Jw8C-U9P2gscICG-59" value="Testnet API&lt;br&gt;Replica 1" style="fontColor=#0066CC;verticalAlign=top;verticalLabelPosition=bottom;labelPosition=center;align=center;html=1;outlineConnect=0;fillColor=#CCCCCC;strokeColor=#6881B3;gradientColor=none;gradientDirection=north;strokeWidth=2;shape=mxgraph.networks.virtual_server;" vertex="1" parent="g_iQ5Jw8C-U9P2gscICG-58">
          <mxGeometry width="46" height="46.15384615384615" as="geometry" />
        </mxCell>
        <mxCell id="g_iQ5Jw8C-U9P2gscICG-60" value="Testnet API&lt;br&gt;Replica 2 ... n" style="fontColor=#0066CC;verticalAlign=top;verticalLabelPosition=bottom;labelPosition=center;align=center;html=1;outlineConnect=0;fillColor=#CCCCCC;strokeColor=#6881B3;gradientColor=none;gradientDirection=north;strokeWidth=2;shape=mxgraph.networks.virtual_server;" vertex="1" parent="g_iQ5Jw8C-U9P2gscICG-58">
          <mxGeometry y="103.84615384615384" width="46" height="46.15384615384615" as="geometry" />
        </mxCell>
        <mxCell id="g_iQ5Jw8C-U9P2gscICG-61" style="edgeStyle=orthogonalEdgeStyle;rounded=0;orthogonalLoop=1;jettySize=auto;html=1;endArrow=none;endFill=0;" edge="1" parent="g_iQ5Jw8C-U9P2gscICG-58" source="g_iQ5Jw8C-U9P2gscICG-60" target="g_iQ5Jw8C-U9P2gscICG-59">
          <mxGeometry relative="1" as="geometry" />
        </mxCell>
      </root>
    </mxGraphModel>
  </diagram>
</mxfile>
